<svg width="24" height="24" viewBox="0 0 24 24" fill="none" xmlns="http://www.w3.org/2000/svg">
<path d="M3.66665 9.83391L3.66665 14.8324L3.66665 14.8332V18.1665C3.66665 18.3599 3.73387 18.5464 3.85537 18.6947C3.87273 18.7158 3.89119 18.7362 3.91073 18.7558C4.05724 18.9023 4.25269 18.9886 4.45865 18.9988C4.47238 18.9995 4.48616 18.9999 4.49998 18.9999H12.8332C13.0542 18.9999 13.2662 18.9121 13.4225 18.7558C13.5788 18.5995 13.6666 18.3875 13.6666 18.1665V15.6666C13.6666 15.4455 13.7543 15.2336 13.9106 15.0773C14.0669 14.921 14.2789 14.8332 14.4999 14.8332C14.7209 14.8332 14.9329 14.921 15.0891 15.0773C15.2454 15.2336 15.3332 15.4455 15.3332 15.6666V18.1665C15.3332 18.8296 15.0698 19.4654 14.601 19.9343C14.1321 20.4031 13.4963 20.6665 12.8332 20.6665H4.49998C3.83694 20.6665 3.20106 20.4031 2.73223 19.9343C2.26339 19.4654 2 18.8296 2 18.1665V6.49997C2 5.91982 2.20166 5.36045 2.56616 4.91559C2.61823 4.85204 2.67362 4.79083 2.73223 4.73222C2.8268 4.63765 2.92816 4.55144 3.03518 4.47407C3.42554 4.19182 3.89106 4.02713 4.37601 4.00307C4.4172 4.00103 4.45854 4 4.49998 4H12.8332C13.4963 4 14.1321 4.26339 14.601 4.73223C15.0698 5.20106 15.3332 5.83694 15.3332 6.49998V8.99995C15.3332 9.22096 15.2454 9.43292 15.0891 9.5892C14.9329 9.74548 14.7209 9.83328 14.4999 9.83328C14.2789 9.83328 14.0669 9.74548 13.9106 9.5892C13.7543 9.43292 13.6666 9.22096 13.6666 8.99995V6.49998C13.6666 6.27896 13.5788 6.067 13.4225 5.91072C13.2662 5.75445 13.0542 5.66665 12.8332 5.66665L4.49998 5.66665C4.27896 5.66665 4.067 5.75445 3.91073 5.91072C3.75445 6.067 3.66665 6.27896 3.66665 6.49997L3.66665 9.83391Z" fill="#2E2E32"/>
<path d="M21.9329 12.6522C21.8933 12.7545 21.8338 12.848 21.7579 12.9272L18.4246 16.2605C18.3469 16.3382 18.2547 16.3999 18.1532 16.4419C18.0516 16.484 17.9428 16.5056 17.833 16.5056C17.7231 16.5056 17.6143 16.484 17.5128 16.4419C17.4112 16.3999 17.319 16.3382 17.2413 16.2605C17.1636 16.1828 17.102 16.0906 17.0599 15.9891C17.0179 15.8876 16.9962 15.7788 16.9962 15.6689C16.9962 15.559 17.0179 15.4502 17.0599 15.3487C17.102 15.2472 17.1636 15.1549 17.2413 15.0772L19.1579 13.1689L9.49971 13.1689C9.2787 13.1689 9.06674 13.0811 8.91046 12.9248C8.75418 12.7686 8.66638 12.5566 8.66638 12.3356C8.66638 12.1146 8.75418 11.9026 8.91046 11.7463C9.06674 11.5901 9.2787 11.5023 9.49971 11.5023L19.1579 11.5023L17.2413 9.59394C17.0844 9.43702 16.9962 9.22419 16.9962 9.00228C16.9962 8.78036 17.0844 8.56754 17.2413 8.41062C17.3982 8.2537 17.611 8.16554 17.833 8.16554C18.0549 8.16554 18.2677 8.2537 18.4246 8.41062L21.7579 11.7439C21.8338 11.8232 21.8933 11.9166 21.9329 12.0189C21.977 12.1187 21.9998 12.2265 21.9998 12.3356C21.9998 12.4446 21.977 12.5525 21.9329 12.6522Z" fill="#2E2E32"/>
</svg>
